PathFileType	4	(X/Y/Z)	C:/Users/beibeiliu/ov580/test_trc/capture2\sequence.3_training_dense_left.trc
DataRate	CameraRate	NumFrames	NumMarkers	Units	OrigDataRate	OrigDataStartFrame	OrigNumFrames
120	120	23	19	mm	120	307	350
Frame#	Time	ThumbCMC			ThumbMCP			ThumbIP			ThumbTip			IndexMCP			IndexPIP			IndexTip			MiddleMCP			MiddlePIP			MiddleTip			RingMCP			RingPIP			RingTip			PinkyMCP			PinkyPIP			PinkyTip			BackHand1			BackHand2			BackHand3	
		X0	Y0	Z0	X1	Y1	Z1	X2	Y2	Z2	X3	Y3	Z3	X4	Y4	Z4	X5	Y5	Z5	X6	Y6	Z6	X7	Y7	Z7	X8	Y8	Z8	X9	Y9	Z9	X10	Y10	Z10	X11	Y11	Z11	X12	Y12	Z12	X13	Y13	Z13	X14	Y14	Z14	X15	Y15	Z15	X16	Y16	Z16	X17	Y17	Z17	X18	Y18	Z18	
306	2.55	-89.6734	-18.0696	-22.0848	-81.2995	-35.4994	-47.4089	-71.7358	-40.4606	-76.1451	-83.8309	-29.0635	-96.8776	-68.5423	-18.5233	-94.3068	-89.6052	-39.9437	-102.279	-105.999	-37.7842	-74.6439	-87.28	-7.13062	-101.738	-108.837	-30.4226	-99.7291	-111.222	-23.2853	-61.6209	-107.157	-0.639548	-103.678	-123.689	-22.6683	-87.5357	-120.73	-10.4944	-59.407	-117.237	10.5646	-97.5896	-132.332	-12.0376	-82.9006	-126.905	-0.417171	-54.585	-96.916	35.0103	-57.6367	-107.748	38.6986	-29.7148	-82.7117	18.8985	-32.3973	
307	2.55833	-86.4277	-22.6748	-22.821	-85.1289	-45.719	-46.675	-80.2254	-51.0185	-74.1989	-87.5513	-41.0358	-100.633	-65.6299	-19.4836	-93.0772	-88.7129	-38.7756	-100.247	-102.296	-30.4898	-72.043	-88.3705	-6.90754	-101.76	-111.088	-30.9439	-96.6877	-112.564	-22.9551	-62.5443	-103.419	-2.45375	-102.497	-121.166	-22.9418	-88.8912	-121.122	-10.4904	-59.4728	-119.857	9.26636	-98.8839	-132.582	-12.2324	-84.4247	-124.683	0.276023	-52.8659	-99.1793	35.3638	-56.4785	-105.961	36.4934	-29.4762	-79.0549	15.9748	-30.334	
308	2.56667	-88.3342	-22.9224	-27.5191	-89.6188	-46.4052	-47.6633	-84.0742	-57.9076	-74.4341	-89.4558	-50.3087	-100.375	-66.1319	-21.9449	-91.3812	-88.1727	-43.9111	-95.768	-98.0686	-30.1856	-67.4165	-85.7223	-7.54107	-100.678	-107.051	-31.8207	-97.571	-114.707	-24.0668	-63.3856	-105.2	-2.1055	-102.574	-123.306	-22.2007	-90.0795	-117.376	-14.2338	-59.7998	-119.678	12.2939	-97.735	-133.642	-11.5969	-81.2763	-126.743	-2.55418	-53.4043	-95.6211	32.8523	-54.7968	-108.483	36.3353	-28.6207	-81.4776	15.8193	-32.7634	
309	2.575	-87.8911	-24.6042	-27.8248	-91.1955	-43.5304	-50.6182	-85.4083	-55.9926	-77.1897	-90.1423	-47.5033	-104.768	-65.877	-22.4102	-90.4265	-90.4893	-41.1588	-97.1192	-98.7973	-31.6261	-65.8177	-83.6122	-11.3849	-99.7458	-104.784	-33.8581	-98.2721	-113.764	-23.9392	-63.1945	-103.743	0.404535	-101.204	-119.805	-23.7931	-89.0371	-115.98	-10.6791	-56.4617	-115.61	7.37151	-96.9687	-130.932	-12.7941	-82.8854	-121.223	-2.7875	-52.8526	-96.0491	35.6431	-56.6227	-107.73	35.0817	-25.5674	-78.6918	15.1273	-34.0361	
310	2.58333	-88.0341	-24.7589	-26.2718	-87.9056	-47.2428	-49.0568	-85.01	-53.8338	-72.6252	-90.0274	-47.6947	-99.7271	-65.444	-25.5986	-90.5303	-90.1553	-42.5281	-99.9409	-103.589	-32.9163	-70.9639	-85.2657	-12.736	-100.193	-109.434	-33.0398	-98.7316	-113.659	-26.1609	-61.336	-103.946	-1.39225	-101.284	-122.043	-24.5591	-90.0096	-119.289	-10.525	-56.9394	-117.346	6.94157	-97.7162	-132.182	-12.9086	-80.9967	-121.783	-4.35333	-54.5264	-96.726	34.4906	-57.0339	-103.356	32.6063	-27.068	-80.6896	10.8667	-29.4934	
311	2.59167	-91.4775	-23.8589	-21.6654	-85.0303	-42.3959	-47.6075	-76.774	-52.4398	-72.2362	-89.3078	-33.3183	-93.6022	-69.3245	-24.215	-93.5752	-89.4118	-44.6969	-104.195	-109.699	-47.0774	-77.227	-84.0914	-14.7896	-99.3727	-111.698	-33.1129	-99.979	-114.011	-27.2597	-61.9461	-103.295	-3.99867	-100.819	-125.78	-23.8449	-90.0111	-120.398	-13.1954	-58.1077	-115.794	4.53406	-97.235	-131.022	-14.5725	-82.7092	-124.283	-2.11913	-53.6487	-95.9148	31.6308	-57.6262	-104.591	31.4614	-24.6886	-76.7159	8.23673	-32.9924	
312	2.6	-87.8621	-26.9438	-21.5952	-83.0798	-41.8065	-45.296	-77.8349	-46.618	-70.9316	-91.7646	-28.8091	-92.288	-68.3335	-26.8054	-92.4402	-90.5588	-46.7889	-104.005	-113.083	-47.5095	-79.216	-87.3006	-12.7986	-100.477	-109.657	-38.3141	-97.471	-113.554	-28.46	-61.9936	-105.133	-5.89645	-101.89	-123.436	-26.0495	-90.2283	-116.336	-15.0413	-58.6411	-117.355	3.60713	-98.3421	-132.087	-14.1701	-81.7391	-126.586	-3.24661	-52.9218	-94.0828	29.4139	-58.3674	-106.256	33.0603	-26.5446	-81.603	7.64539	-29.9932	
313	2.60833	-90.4465	-27.4157	-18.2678	-84.187	-42.9337	-41.7192	-77.4882	-45.4017	-75.181	-90.8599	-29.7121	-93.9989	-68.588	-26.0118	-89.9392	-89.6782	-43.4433	-106.367	-113.012	-49.3889	-81.5015	-84.3466	-16.8762	-99.9369	-112.825	-34.0373	-100.709	-114.999	-29.095	-63.0788	-104.914	-7.22311	-102.414	-127.604	-22.6775	-89.6459	-117.246	-13.244	-58.2604	-116.056	7.52678	-96.0829	-133.039	-14.6213	-83.6043	-123.993	-3.09737	-54.6627	-90.3674	27.9191	-57.8975	-103.925	34.5888	-25.9308	-79.5481	7.11733	-30.8362	
314	2.61667	-91.0472	-25.5588	-19.1445	-84.2206	-42.9575	-45.09	-77.7252	-49.167	-71.2079	-91.3277	-32.1163	-91.1739	-69.5197	-25.1983	-90.582	-91.134	-43.9319	-105.583	-112.656	-48.7181	-79.4343	-86.7647	-13.4042	-99.8169	-110.82	-34.8047	-101.071	-114.967	-29.1849	-64.8873	-105.536	-2.0698	-102.246	-122.72	-24.8122	-92.4012	-118.7	-15.6544	-60.0286	-115.101	5.10408	-97.7596	-134.142	-12.2674	-86.5561	-126.122	-3.32061	-53.7192	-93.1332	29.25	-59.8172	-105.361	34.439	-26.5651	-81.0009	9.47662	-33.6624	
315	2.625	-90.5802	-26.8771	-19.8558	-86.6532	-44.9364	-44.653	-80.9299	-51.021	-70.1485	-89.5436	-34.4827	-97.0666	-70.1547	-29.8031	-94.2801	-91.7995	-48.4386	-102.737	-110.829	-46.7745	-75.1015	-86.9443	-17.7008	-102.023	-111.759	-36.8579	-97.898	-115.322	-25.9846	-63.4909	-103.143	-4.37632	-101.582	-124.332	-23.7469	-89.7024	-119.86	-12.8986	-59.3376	-114.856	6.25954	-97.3653	-131.45	-13.6376	-83.1743	-121.321	-1.43312	-53.7137	-90.5274	27.2695	-55.4772	-103.668	34.7834	-27.6927	-79.7122	9.87496	-31.4573	
316	2.63333	-90.3647	-26.5019	-23.0339	-89.6002	-45.5159	-47.7948	-82.7505	-60.1835	-73.268	-90.8846	-49.407	-94.6819	-66.8301	-25.8763	-88.6576	-90.7727	-43.3513	-100.605	-102.941	-39.3443	-65.6092	-84.1994	-15.2695	-99.3366	-110.614	-32.4777	-97.8522	-112.323	-24.3836	-60.349	-104.647	-4.10232	-102.535	-123.882	-23.1779	-90.5363	-120.5	-12.5359	-58.5108	-117.463	6.50134	-99.6946	-132.332	-11.863	-82.5599	-121.358	-4.39024	-54.7649	-91.2437	29.493	-53.6346	-101.458	33.9369	-24.1662	-75.5873	8.69238	-30.2466	
317	2.64167	-87.0857	-30.1001	-21.5774	-91.4964	-48.8103	-44.8565	-85.7589	-61.9151	-71.5069	-89.2773	-54.3515	-99.1454	-67.163	-26.3368	-91.3819	-89.4255	-43.7393	-97.013	-97.7545	-31.4777	-63.2671	-83.243	-11.2156	-98.1586	-105.009	-37.1213	-94.4147	-112.815	-25.7564	-62.1751	-102.043	-3.99248	-100.854	-118.553	-24.9201	-90.5794	-116.545	-14.4746	-56.9084	-112.928	8.4381	-96.5543	-128.982	-13.5047	-81.4606	-118.423	-3.64761	-50.4574	-89.9073	32.0097	-52.6803	-101.56	32.5084	-23.9791	-76.3682	8.11442	-29.8365	
318	2.65	-86.5216	-31.8717	-20.3745	-90.7904	-50.8877	-43.5716	-85.6624	-62.5931	-71.9475	-89.4702	-54.236	-95.2665	-64.9004	-30.3774	-89.8189	-86.3736	-50.1153	-93.3212	-96.7475	-35.8211	-63.1312	-80.4094	-20.4342	-97.9978	-106.245	-35.4042	-95.8338	-109.527	-28.7976	-59.3868	-95.0941	-5.55773	-96.6357	-118.053	-27.0653	-88.4516	-113.742	-15.6945	-53.9415	-111.508	7.32881	-95.2188	-125.209	-15.2905	-81.5047	-120.252	-5.80565	-53.2338	-88.8203	28.6958	-50.9396	-100.787	30.378	-22.4168	-74.2467	7.46238	-25.7352	
319	2.65833	-85.6904	-35.613	-21.3897	-90.5452	-56.0506	-42.3585	-85.7534	-67.3639	-70.9306	-89.3889	-57.0695	-93.7148	-61.982	-36.6387	-86.9565	-86.0306	-50.1114	-93.8476	-94.1708	-36.0689	-62.2912	-81.2808	-20.5745	-98.8173	-105.136	-41.3729	-92.0813	-109.736	-32.5309	-58.7405	-94.8178	-10.5193	-97.1299	-116.109	-27.8466	-88.7232	-115.242	-19.081	-54.3554	-106.344	2.70839	-92.4165	-127.842	-14.7228	-81.2771	-118.183	-7.13875	-49.185	-84.5722	23.4841	-54.7105	-96.5369	26.7872	-21.611	-73.0803	4.9556	-26.3335	
320	2.66667	-87.7911	-36.0858	-16.563	-88.7059	-58.9872	-43.3118	-85.4686	-69.6984	-68.5734	-86.9679	-61.9602	-95.0123	-62.6103	-36.5032	-83.0445	-85.4871	-57.4055	-90.5475	-91.4413	-44.7125	-56.718	-79.0861	-23.6566	-93.0235	-104.018	-46.2635	-90.3928	-110.283	-33.041	-56.8364	-95.4041	-16.4206	-96.3452	-118.807	-32.6972	-84.3338	-113.271	-21.0702	-49.8586	-107.044	-0.345522	-92.0909	-123.465	-22.4211	-78.8289	-115.925	-10.7054	-45.9455	-83.5598	22.2175	-52.711	-94.73	24.7267	-20.9191	-73.7562	-1.28604	-22.3089	
321	2.675	-85.4584	-41.3346	-17.5249	-89.7037	-67.8691	-36.7018	-85.816	-77.2547	-62.0639	-87.468	-71.4851	-90.924	-64.6719	-45.1725	-83.7061	-83.9598	-63.7771	-87.1084	-91.431	-48.1513	-53.7153	-77.6795	-34.9615	-91.786	-102.106	-50.3157	-90.3428	-108.416	-41.1636	-53.4218	-91.7739	-21.5728	-91.9743	-115.43	-40.8883	-81.413	-113.059	-29.7734	-49.476	-104.123	-7.05525	-87.5158	-125.254	-27.1397	-75.3209	-115.141	-17.6337	-44.4919	-84.0302	14.4983	-48.7954	-93.5943	18.4372	-17.3815	-71.9103	-5.23684	-21.4307	
322	2.68333	-88.0953	-46.4979	-9.91049	-88.8859	-70.2827	-36.3775	-85.6767	-83.4285	-59.4428	-88.512	-72.3636	-88.0583	-64.4538	-50.8909	-81.6466	-85.8954	-65.9061	-85.0804	-92.6608	-51.6572	-55.0013	-76.1237	-40.9644	-87.5935	-103.257	-55.0304	-87.3634	-106.042	-47.3376	-47.9508	-94.4796	-25.5217	-90.8633	-115.821	-44.8425	-80.9786	-113.638	-36.3318	-49.9005	-105.203	-15.7488	-87.0903	-126.362	-31.3998	-72.8342	-116.31	-24.6715	-46.342	-83.5381	6.81067	-44.7972	-95.7026	13.0207	-17.7611	-72.0628	-10.946	-23.6915	
323	2.69167	-85.3055	-52.0948	-9.52909	-89.9743	-73.047	-30.9575	-87.4432	-82.895	-55.0897	-89.6498	-76.8936	-82.3193	-62.7126	-54.34	-76.981	-82.9436	-74.4969	-80.7796	-90.1731	-56.091	-48.6029	-76.8659	-43.8341	-84.9326	-101.637	-63.0586	-82.0614	-105.406	-50.5416	-45.0332	-92.8197	-34.4631	-89.4764	-117.372	-48.6273	-79.3908	-114.948	-37.3207	-45.7539	-105.337	-19.0399	-84.857	-125.062	-37.9383	-72.4296	-116.957	-26.56	-41.5312	-85.7604	8.76374	-43.578	-95.6926	9.61196	-18.1398	-70.1298	-17.2313	-18.3492	
324	2.7	-86.1089	-54.0449	-7.31575	-90.7094	-73.6913	-29.3997	-85.8302	-87.3637	-55.6018	-90.0899	-80.3481	-79.3476	-62.7405	-55.5111	-73.2303	-85.6968	-74.0486	-77.9493	-90.7648	-60.234	-47.0879	-76.5874	-44.2008	-82.2232	-102.704	-63.6311	-83.1417	-109.417	-53.3229	-47.8714	-92.5122	-37.8869	-85.929	-114.692	-54.3943	-77.8468	-114.851	-41.2307	-43.4778	-104.474	-20.7969	-82.1621	-126.821	-40.7007	-70.1572	-115.818	-32.6373	-41.2559	-85.5136	5.47743	-43.6456	-97.7234	8.86108	-14.7808	-72.862	-15.3997	-15.4941	
325	2.70833	-84.9967	-56.6315	-4.67721	-88.5523	-80.649	-27.4085	-84.7315	-89.2819	-55.5819	-90.9006	-80.5637	-78.6122	-63.7384	-58.0863	-70.4115	-85.0288	-78.0706	-73.6999	-90.5799	-62.7938	-45.1471	-78.3948	-49.3712	-82.3089	-102.886	-66.8474	-80.1503	-106.745	-58.1923	-44.251	-94.423	-36.5268	-84.9491	-118.777	-57.2211	-73.2612	-115.152	-47.0143	-42.3934	-106.281	-24.9646	-81.7215	-125.464	-46.6818	-67.6317	-117.105	-35.2464	-39.2612	-85.4125	0.214339	-42.5359	-98.0704	5.21541	-16.0205	-72.7915	-21.1017	-14.2325	
326	2.71667	-88.5192	-55.8518	-4.09505	-89.671	-81.8374	-26.5999	-88.4729	-90.2509	-49.1593	-91.993	-81.9605	-77.7148	-64.0163	-61.182	-69.4292	-87.8402	-81.6971	-69.7637	-87.9003	-66.1638	-40.7945	-78.4752	-50.9099	-79.4312	-105.498	-69.8919	-75.9847	-107.478	-62.5741	-42.849	-94.1421	-41.5725	-82.8924	-117.087	-60.0437	-73.3901	-113.617	-51.1243	-41.0762	-109.35	-31.4516	-81.036	-127.51	-49.15	-66.214	-119.798	-41.4734	-37.5374	-88.0653	-0.577068	-42.8258	-97.3675	4.03118	-13.397	-74.5834	-20.4949	-13.625	
327	2.725	-89.3351	-58.404	-3.29587	-92.655	-84.5199	-23.4613	-89.9286	-92.1505	-52.2716	-93.556	-85.6276	-75.964	-64.5821	-62.2915	-67.3642	-88.5536	-81.1503	-71.1361	-91.3714	-67.7962	-42.3099	-79.933	-55.355	-79.5705	-105.815	-71.9604	-74.9769	-108.303	-61.0293	-41.4429	-98.5356	-44.1148	-83.1078	-118.963	-62.7466	-72.6599	-114.766	-51.0559	-38.2783	-109.531	-32.4273	-79.3381	-129.528	-50.1502	-68.7611	-119.595	-40.0462	-37.1814	-90.8188	-3.15323	-39.2206	-101.292	1.25693	-9.35756	-75.7881	-22.6111	-12.8458	
328	2.73333	-88.4663	-62.091	-1.34132	-94.7054	-82.3668	-24.1032	-90.6364	-91.4812	-51.7084	-96.39	-84.5099	-73.7452	-64.4708	-65.261	-65.4507	-90.7302	-84.0573	-68.5184	-92.4441	-68.781	-41.5469	-80.9055	-53.8636	-77.6138	-106.066	-71.8199	-77.3638	-106.514	-63.3316	-39.9747	-98.7528	-42.5995	-80.006	-119.83	-62.5352	-73.197	-116.003	-53.7826	-39.9279	-114.378	-28.4155	-79.5819	-129.78	-51.654	-66.1376	-119.47	-41.1793	-35.7559	-90.3251	-4.2804	-41.3926	-100.735	1.91479	-11.9201	-73.2916	-24.7745	-10.7471	
